<?xml version="1.0" encoding="UTF-8"?><svg id="Layer_1" xmlns="http://www.w3.org/2000/svg" viewBox="0 0 3500 815.7"><defs><style>.cls-1{fill:#fff;}.cls-2{fill:#b282f8;}</style></defs><path class="cls-1" d="m972.72,226.28v-4.35c0-116.38,80.12-197.55,187.79-197.55,88.78,0,157.52,44.39,166.18,135.32h-73.04c-8.13-51.42-36.78-77.92-92.56-77.92-68.21,0-112.61,53.05-112.61,139.63v4.35c0,87.15,41.66,138.58,113.13,138.58,53.57,0,91.46-27.08,99.07-81.75h70.36c-11.39,93.08-77.39,140.2-169.43,140.2-121.26,0-188.9-77.39-188.9-196.45v-.05Z"/><path class="cls-1" d="m1466.57,388.68l-112.03-254.38h70.89l75.25,182.39,69.26-182.39h63.86l-154.27,379.95h-64.43l51.42-125.56h.05Z"/><path class="cls-1" d="m1734.08,371.89v45.44h-65.49V3.28h65.49v176.46c15.69-27.08,50.9-51.42,92.56-51.42,70.89,0,125.56,52.52,125.56,143.98v4.35c0,90.93-52.52,146.13-125.56,146.13-44.92,0-77.39-22.2-92.56-50.9Zm151.01-94.19v-4.36c0-62.81-32.48-93.61-75.24-93.61-45.49,0-77.92,30.85-77.92,93.61v4.36c0,63.33,30.85,93.08,78.5,93.08s74.72-32.48,74.72-93.08h-.05Z"/><path class="cls-1" d="m1984.47,278.8v-4.35c0-87.68,60.08-146.13,140.73-146.13,70.36,0,133.7,41.66,133.7,142.88v18.94h-207.32c2.15,53.57,29.23,83.9,77.92,83.9,39.51,0,60.08-15.69,64.96-43.29h63.33c-9.18,59.55-57.35,92.03-129.92,92.03-83.32,0-143.4-54.68-143.4-143.98Zm209.47-32.48c-3.25-48.69-28.12-70.37-68.74-70.37s-66.01,26.5-72.51,70.37h141.25Z"/><path class="cls-1" d="m2307.64,134.3h65.48v53.05c17.84-35.73,44.39-56.83,92.03-57.35v61.18c-57.35.52-92.03,18.94-92.03,79.02v147.23h-65.48V134.3Z"/><path class="cls-2" d="m2595.98,30.35h72.52v386.98h-72.52V30.35Z"/><path class="cls-2" d="m2739.9,134.3h65.47v44.92c13.55-27.6,44.92-50.9,91.47-50.9,56.83,0,96.87,33,96.87,110.98v178.09h-65.5v-172.11c0-42.76-17.31-62.23-56.3-62.23-36.79,0-66.59,22.72-66.59,67.64v166.7h-65.47V134.3h.05Z"/><path class="cls-2" d="m3063.59,183.52h-38.41v-49.27h38.41v-37.88c0-62.23,34.64-95.81,95.25-95.81,15.68,0,25.44,1.63,37.35,5.4v50.9c-7.55-2.73-17.84-4.88-29.75-4.88-26.5,0-37.35,17.32-37.35,41.66v40.61h64.43v49.27h-64.43v233.81h-65.5v-233.81Z"/><path class="cls-2" d="m3209.35,278.8v-4.35c0-87.68,62.23-146.13,145.62-146.13s145.03,57.93,145.03,144.51v4.35c0,88.2-62.23,145.61-145.62,145.61s-145.03-57.93-145.03-143.98Zm223.53-1.1v-3.78c0-58.45-29.22-94.19-77.92-94.19s-78.5,35.16-78.5,93.61v4.35c0,57.93,28.71,94.19,78.5,94.19s77.92-36.26,77.92-94.19Z"/><path class="cls-1" d="m812.46,2.75l-203.12,203.12H203.12L406.23,2.75h406.23Z"/><path class="cls-1" d="m609.35,612.1l-203.12-203.12-203.12-203.12L0,408.99l203.12,203.12,29.02,29.02,174.1,174.1h406.23l-203.12-203.12Z"/></svg>